<?xml version="1.0" standalone="no"?>
<!DOCTYPE svg PUBLIC "-//W3C//DTD SVG 20010904//EN"
 "http://www.w3.org/TR/2001/REC-SVG-20010904/DTD/svg10.dtd">
<svg version="1.0" xmlns="http://www.w3.org/2000/svg"
 width="297.000000pt" height="170.000000pt" viewBox="0 0 297.000000 170.000000"
 preserveAspectRatio="xMidYMid meet">

<g transform="translate(0.000000,170.000000) scale(0.100000,-0.100000)"
fill="#000000" stroke="none">
<path d="M1130 1033 l0 -668 145 0 145 0 0 668 0 667 -145 0 -145 0 0 -667z"/>
<path d="M1570 1033 l0 -668 145 0 145 0 0 668 0 667 -145 0 -145 0 0 -667z"/>
<path d="M344 1312 c-132 -47 -229 -133 -289 -256 -100 -203 -56 -433 111
-586 64 -58 164 -109 231 -117 l48 -5 129 138 128 139 -144 5 c-139 5 -146 6
-181 32 -138 106 -125 292 25 369 69 35 179 20 236 -34 13 -12 34 -40 45 -62
21 -37 22 -58 27 -305 l5 -265 138 0 137 0 0 270 c0 295 -6 343 -58 439 -43
82 -138 170 -229 214 -74 35 -84 37 -193 40 -91 2 -126 -1 -166 -16z"/>
<path d="M1960 1311 c0 -5 5 -22 11 -38 75 -191 339 -899 339 -908 0 -7 -29
-83 -64 -169 -36 -85 -67 -165 -71 -176 -6 -20 -4 -20 146 -18 l153 3 247 658
247 657 -156 -2 -156 -3 -94 -290 c-52 -159 -97 -285 -99 -280 -2 6 -48 136
-102 290 l-97 280 -152 3 c-92 1 -152 -1 -152 -7z"/>
<path d="M2802 545 c-36 -30 -47 -66 -32 -110 14 -41 48 -65 95 -65 96 0 137
113 63 175 -39 33 -87 33 -126 0z m126 -21 c50 -56 8 -144 -69 -144 -31 0 -79
53 -79 87 0 82 93 118 148 57z"/>
<path d="M2831 468 c1 -35 4 -51 6 -35 5 34 25 35 43 2 7 -14 18 -25 23 -25 5
0 2 11 -7 25 -15 23 -15 26 -1 31 20 8 19 50 -1 58 -9 3 -27 6 -40 6 -23 0
-24 -3 -23 -62z m63 33 c8 -13 -21 -34 -39 -27 -25 9 -18 36 9 36 14 0 27 -4
30 -9z"/>
</g>
</svg>
