<?xml version="1.0" standalone="no"?>
<!DOCTYPE svg PUBLIC "-//W3C//DTD SVG 20010904//EN"
 "http://www.w3.org/TR/2001/REC-SVG-20010904/DTD/svg10.dtd">
<svg version="1.0" xmlns="http://www.w3.org/2000/svg"
 width="512.000000pt" height="512.000000pt" viewBox="0 0 512.000000 512.000000"
 preserveAspectRatio="xMidYMid meet">

<g transform="translate(0.000000,512.000000) scale(0.100000,-0.100000)"
fill="#dd2c00" stroke="none">
<path d="M915 3391 c-77 -22 -217 -96 -297 -158 -462 -353 -728 -958 -567
-1289 27 -58 98 -135 156 -172 141 -89 296 -84 653 23 240 72 332 89 440 82
119 -7 172 -29 243 -98 l59 -57 47 33 c65 46 111 58 217 57 109 -1 215 -22
291 -57 31 -14 58 -24 60 -22 9 10 -152 149 -210 181 -155 87 -274 111 -511
103 -203 -7 -272 -20 -581 -112 -359 -106 -453 -116 -558 -57 -74 41 -112 95
-133 188 -51 230 58 531 320 878 109 145 257 296 346 353 75 48 159 78 194 69
41 -10 47 -66 8 -66 -9 0 -31 -9 -49 -20 -36 -22 -60 -82 -49 -124 5 -22 12
-26 43 -26 65 0 133 96 133 188 0 109 -98 148 -255 103z"/>
<path d="M3370 3394 c-131 -36 -333 -174 -470 -321 -269 -288 -464 -617 -531
-898 -72 -303 79 -522 312 -452 100 30 272 173 365 303 142 198 191 411 114
497 -25 28 -35 32 -77 31 -100 -1 -215 -88 -280 -210 -31 -59 -75 -193 -86
-267 l-6 -38 67 63 c37 35 84 72 104 82 29 16 39 29 49 64 15 53 76 151 114
180 36 29 81 29 96 0 17 -31 5 -112 -27 -192 -50 -127 -222 -324 -326 -374
-66 -33 -129 -30 -171 8 -46 40 -61 97 -55 202 6 106 42 214 128 383 164 324
405 637 607 789 91 69 173 103 217 92 26 -6 24 -9 -51 -64 -148 -110 -244
-242 -258 -356 -16 -124 74 -174 191 -106 130 74 224 251 224 422 0 65 1 68
27 74 71 18 207 -33 405 -152 l109 -66 57 62 c31 35 58 66 60 70 5 14 -301
160 -368 176 -83 21 -199 14 -265 -15 l-47 -21 -31 22 c-39 28 -122 33 -197
12z m204 -171 c-19 -194 -124 -356 -254 -393 -25 -7 -35 -5 -52 12 -43 43 1
169 97 276 58 63 181 162 203 162 9 0 11 -15 6 -57z"/>
<path d="M4671 3395 c-65 -29 -167 -110 -281 -225 -224 -225 -400 -471 -570
-800 -68 -131 -78 -146 -108 -154 -18 -5 -34 -7 -37 -5 -2 3 9 42 26 87 56
161 27 262 -75 262 -13 0 -55 -16 -94 -35 -201 -101 -432 -459 -432 -670 0
-140 67 -180 191 -113 80 42 208 178 281 299 32 52 61 99 65 105 11 17 86 27
79 11 -103 -233 -114 -375 -34 -431 54 -38 132 -7 235 94 57 56 65 61 59 38
-9 -40 10 -110 35 -130 45 -38 124 -12 210 69 l49 46 0 -40 c0 -54 31 -93 73
-93 53 0 119 41 215 134 82 79 232 260 232 279 0 4 -10 7 -23 7 -17 0 -34 -14
-57 -47 -19 -26 -71 -85 -116 -130 -61 -62 -89 -83 -108 -83 -46 0 -50 -10
207 488 l104 202 -77 0 c-73 0 -79 -2 -95 -27 -14 -22 -19 -23 -26 -11 -13 24
-65 41 -103 34 -19 -4 -62 -25 -95 -47 -107 -71 -183 -166 -372 -463 -115
-181 -189 -229 -189 -122 0 50 31 174 65 259 22 54 35 69 94 115 96 73 272
243 425 410 70 77 134 149 141 160 12 17 11 18 -15 14 -21 -3 -57 -36 -141
-129 -171 -188 -401 -405 -415 -390 -13 13 176 350 303 540 128 190 269 341
393 423 41 28 77 27 66 -2 -8 -21 23 -14 38 9 8 13 7 24 -4 45 -19 33 -67 40
-119 17z m-1005 -922 c24 -25 14 -123 -21 -201 -15 -34 -30 -62 -33 -62 -2 0
-20 9 -39 21 -83 52 -85 163 -3 227 46 35 71 39 96 15z m909 -13 c7 -11 -126
-271 -206 -405 -86 -144 -153 -205 -187 -171 -47 47 116 362 268 519 49 49 73
67 92 67 15 0 30 -5 33 -10z m-1028 -270 c21 -13 40 -25 42 -26 7 -6 -78 -141
-123 -197 -49 -59 -101 -97 -133 -97 -81 0 -49 163 67 344 l51 78 28 -40 c16
-21 46 -50 68 -62z"/>
<path d="M5045 3354 c-127 -95 -318 -194 -373 -194 -26 0 -183 -164 -161 -168
26 -5 141 25 202 52 83 37 170 99 252 182 58 58 154 176 142 174 -1 -1 -29
-21 -62 -46z"/>
<path d="M981 2960 c-209 -95 -441 -448 -441 -672 0 -107 29 -148 107 -148
104 0 271 157 392 369 46 79 57 92 89 100 20 6 38 9 40 7 2 -2 -8 -27 -22 -54
-41 -82 -76 -197 -76 -252 0 -64 18 -108 59 -143 28 -23 42 -27 95 -27 78 0
154 35 237 109 l57 50 4 -54 c6 -73 35 -105 93 -105 47 0 94 27 163 93 l42 41
0 -50 c0 -61 20 -84 74 -84 60 0 114 36 227 149 93 93 219 245 219 264 0 4
-11 7 -23 7 -16 0 -32 -12 -49 -35 -80 -113 -223 -245 -248 -230 -22 14 0 65
159 372 l160 308 -77 3 c-68 3 -79 1 -91 -17 -13 -21 -13 -21 -38 -1 -40 31
-108 27 -166 -10 -108 -68 -190 -163 -328 -381 -161 -254 -293 -360 -362 -291
-67 67 53 364 217 540 61 65 112 97 140 86 35 -13 27 -74 -9 -74 -14 0 -36
-14 -54 -36 -27 -30 -32 -43 -29 -77 3 -35 7 -43 26 -45 51 -7 121 94 129 187
5 57 4 62 -25 90 -25 26 -38 31 -78 31 -75 0 -127 -32 -254 -159 -106 -107
-189 -166 -206 -148 -4 3 1 25 11 49 9 24 19 77 22 118 5 71 4 77 -22 108 -23
28 -33 32 -73 32 -26 0 -67 -9 -91 -20z m121 -67 c24 -22 24 -84 -2 -157 -26
-76 -25 -76 -62 -65 -103 29 -117 137 -28 213 36 30 66 33 92 9z m1020 -5 c5
-15 -133 -286 -211 -413 -96 -158 -181 -221 -189 -139 -9 92 164 392 297 517
50 47 95 61 103 35z m-1126 -261 l45 -23 -50 -82 c-81 -135 -165 -222 -214
-222 -51 0 -60 74 -22 177 25 67 93 191 123 226 15 16 17 15 45 -18 16 -20 49
-46 73 -58z"/>
<path d="M2474 2918 c-20 -35 -39 -66 -41 -70 -2 -5 29 -8 70 -8 l75 0 28 48
c15 26 34 57 42 70 l14 22 -75 0 -76 0 -37 -62z"/>
</g>
</svg>
