<?xml version="1.0" standalone="no"?>
<!DOCTYPE svg PUBLIC "-//W3C//DTD SVG 20010904//EN"
 "http://www.w3.org/TR/2001/REC-SVG-20010904/DTD/svg10.dtd">
<svg version="1.0" xmlns="http://www.w3.org/2000/svg"
 width="2048.000000pt" height="2048.000000pt" viewBox="0 0 2048.000000 2048.000000"
 preserveAspectRatio="xMidYMid meet">

<g transform="translate(0.000000,2048.000000) scale(0.100000,-0.100000)"
fill="#1971c2" stroke="none">
<path d="M2170 13285 l0 -235 1575 0 1575 0 0 235 0 235 -1575 0 -1575 0 0
-235z"/>
<path d="M5760 13285 l0 -235 2268 0 2267 1 -35 30 c-259 226 -503 351 -805
412 l-110 22 -1792 3 -1793 3 0 -236z"/>
<path d="M11160 13285 l0 -235 1331 0 c1263 0 1331 1 1326 18 -3 9 -33 91 -67
182 -34 91 -69 188 -79 215 l-18 50 -1246 3 -1247 2 0 -235z"/>
<path d="M15776 13478 c-8 -24 -42 -122 -75 -218 -32 -96 -62 -183 -66 -192
-7 -17 61 -18 1334 -18 l1341 0 0 235 0 235 -1259 0 -1259 0 -16 -42z"/>
<path d="M2170 12395 l0 -235 1573 2 1572 3 3 233 2 232 -1575 0 -1575 0 0
-235z"/>
<path d="M5760 12395 l0 -235 2505 0 2505 0 0 23 c0 52 -82 291 -136 400 l-24
47 -2425 0 -2425 0 0 -235z"/>
<path d="M11162 12398 l3 -233 1492 -3 1492 -2 -40 112 c-22 62 -61 168 -86
236 l-46 122 -1409 0 -1408 0 2 -232z"/>
<path d="M15467 12578 c-8 -29 -43 -133 -76 -230 -34 -97 -61 -179 -61 -183 0
-3 671 -5 1490 -5 l1490 0 0 235 0 235 -1414 0 -1413 0 -16 -52z"/>
<path d="M3090 11515 l0 -235 673 2 672 3 3 233 2 232 -675 0 -675 0 0 -235z"/>
<path d="M6690 11515 l0 -235 670 0 670 0 0 235 0 235 -670 0 -670 0 0 -235z"/>
<path d="M9362 11518 l3 -233 672 -3 672 -2 29 92 c26 81 46 180 67 336 l5 42
-725 0 -725 0 2 -232z"/>
<path d="M12050 11515 l0 -235 1210 0 c666 0 1210 3 1210 6 0 7 -31 93 -118
329 l-48 130 -1127 3 -1127 2 0 -235z"/>
<path d="M15107 11522 c-42 -125 -77 -230 -77 -234 0 -5 540 -8 1200 -8 l1200
0 0 235 0 235 -1122 0 -1123 0 -78 -228z"/>
<path d="M3090 10640 l0 -230 675 0 675 0 0 230 0 230 -675 0 -675 0 0 -230z"/>
<path d="M6690 10640 l0 -230 1700 0 1701 0 127 128 c110 109 272 304 272 325
0 4 -855 7 -1900 7 l-1900 0 0 -230z"/>
<path d="M12050 10640 l0 -230 670 0 670 0 0 130 c0 72 4 130 8 130 8 0 31
-55 82 -197 l22 -63 1238 0 1238 0 31 88 c55 152 64 172 72 172 5 0 9 -58 9
-130 l0 -130 670 0 670 0 0 230 0 230 -1273 0 -1273 0 -48 -142 c-27 -79 -55
-159 -63 -178 l-15 -35 -13 35 c-8 19 -37 99 -67 178 l-52 142 -1288 0 -1288
0 0 -230z"/>
<path d="M3090 9795 l0 -235 673 2 672 3 3 233 2 232 -675 0 -675 0 0 -235z"/>
<path d="M6690 9795 l0 -235 1915 0 c1053 0 1915 3 1915 8 -1 30 -171 243
-299 375 l-86 87 -1722 0 -1723 0 0 -235z"/>
<path d="M12050 9795 l0 -235 670 0 670 0 0 235 0 235 -670 0 -670 0 0 -235z"/>
<path d="M13722 9813 c44 -120 82 -226 85 -235 5 -17 58 -18 939 -18 514 0
934 2 934 4 0 2 33 95 73 208 41 112 77 216 81 231 l6 27 -1098 0 -1099 0 79
-217z"/>
<path d="M16090 9795 l0 -235 670 0 670 0 0 235 0 235 -670 0 -670 0 0 -235z"/>
<path d="M3090 8920 l0 -240 673 2 672 3 3 238 2 237 -675 0 -675 0 0 -240z"/>
<path d="M6690 8920 l0 -240 670 0 670 0 0 240 0 240 -670 0 -670 0 0 -240z"/>
<path d="M9362 8923 l3 -238 718 -3 717 -2 0 37 c0 65 -38 295 -61 371 l-22
72 -679 0 -678 0 2 -237z"/>
<path d="M12050 8920 l0 -240 670 0 670 0 0 240 0 240 -670 0 -670 0 0 -240z"/>
<path d="M13996 9063 c20 -54 49 -134 65 -178 15 -44 39 -107 52 -140 l23 -60
616 -3 615 -2 23 67 c12 38 49 142 81 232 33 90 59 168 59 172 0 5 -353 9
-785 9 l-784 0 35 -97z"/>
<path d="M16090 8920 l0 -240 670 0 670 0 0 240 0 240 -670 0 -670 0 0 -240z"/>
<path d="M2170 8035 l0 -235 1573 2 1572 3 3 233 2 232 -1575 0 -1575 0 0
-235z"/>
<path d="M5760 8035 l0 -235 2410 0 2410 0 39 78 c54 108 141 345 141 386 0 3
-1125 6 -2500 6 l-2500 0 0 -235z"/>
<path d="M11162 8038 l3 -233 1113 -3 1112 -2 0 235 0 235 -1115 0 -1115 0 2
-232z"/>
<path d="M14290 8266 c0 -8 124 -351 159 -439 l11 -27 297 2 298 3 82 230 c45
127 83 231 83 233 0 1 -209 2 -465 2 -256 0 -465 -2 -465 -4z"/>
<path d="M16090 8035 l0 -235 1110 0 1110 0 0 235 0 235 -1110 0 -1110 0 0
-235z"/>
<path d="M2170 7195 l0 -235 1575 0 1575 0 0 235 0 235 -1575 0 -1575 0 0
-235z"/>
<path d="M5760 7195 l0 -235 1733 0 c1727 0 1830 2 2002 36 252 49 541 197
740 378 l60 55 -2267 1 -2268 0 0 -235z"/>
<path d="M11160 7195 l0 -235 1115 0 1115 0 0 235 0 235 -1115 0 -1115 0 0
-235z"/>
<path d="M14600 7421 c0 -5 19 -60 41 -123 23 -62 57 -156 75 -208 39 -109 49
-122 58 -83 4 15 18 57 31 93 13 36 43 118 65 184 23 65 44 124 47 132 4 12
-22 14 -156 14 -91 0 -161 -4 -161 -9z"/>
<path d="M16090 7195 l0 -235 1110 0 1110 0 0 235 0 235 -1110 0 -1110 0 0
-235z"/>
</g>
</svg>
