<?xml version="1.0" standalone="no"?>
<!DOCTYPE svg PUBLIC "-//W3C//DTD SVG 20010904//EN"
 "http://www.w3.org/TR/2001/REC-SVG-20010904/DTD/svg10.dtd">
<svg version="1.0" xmlns="http://www.w3.org/2000/svg"
 width="327.000000pt" height="154.000000pt" viewBox="0 0 327.000000 154.000000"
 preserveAspectRatio="xMidYMid meet">

<g transform="translate(0.000000,154.000000) scale(0.100000,-0.100000)"
fill="#004990" stroke="none">
<path d="M1220 1324 l-405 -174 -257 0 -257 0 -3 -72 -3 -73 -127 -3 -128 -3
0 -479 0 -480 1600 0 1600 0 0 480 0 479 -127 3 -128 3 -3 73 -3 72 -257 0
-257 0 -410 175 c-226 96 -414 174 -420 174 -5 -1 -192 -79 -415 -175z m-670
-699 l0 -265 115 0 115 0 0 -65 0 -65 -190 0 -190 0 0 330 0 330 75 0 75 0 0
-265z m1977 243 c-3 -13 -9 -49 -12 -81 l-7 -58 -52 3 -51 3 -3 78 -3 77 67 0
c64 0 66 -1 61 -22z m254 -88 c99 -30 109 -40 109 -111 0 -32 -2 -59 -4 -59
-2 0 -28 11 -57 24 -99 43 -162 45 -174 5 -9 -28 11 -48 73 -76 120 -53 172
-111 172 -193 0 -57 -38 -122 -84 -144 -44 -21 -146 -21 -237 0 l-69 16 0 68
0 68 75 -24 c110 -35 165 -31 165 11 0 27 -23 49 -75 71 -71 29 -131 73 -153
113 -51 91 -8 200 95 236 53 19 91 18 164 -5z m207 8 c28 -28 7 -78 -33 -78
-27 0 -45 18 -45 45 0 27 18 45 45 45 12 0 26 -5 33 -12z m-1753 -33 l25 -24
0 -226 0 -226 -25 -24 c-24 -25 -27 -25 -190 -25 -163 0 -166 0 -190 25 l-25
24 0 226 0 226 25 24 c24 25 27 25 190 25 163 0 166 0 190 -25z m255 -185 l0
-210 40 0 40 0 0 210 0 211 68 -3 67 -3 3 -207 2 -208 40 0 40 0 0 210 0 210
75 0 75 0 0 -252 c0 -316 9 -298 -156 -298 -90 0 -116 3 -129 16 -15 15 -17
15 -34 0 -14 -13 -40 -16 -126 -16 -164 0 -155 -18 -155 297 l0 253 75 0 75 0
0 -210z m880 145 l0 -65 -100 0 -100 0 0 -40 0 -40 100 0 100 0 0 -65 0 -65
-100 0 -100 0 0 -40 0 -40 100 0 100 0 0 -65 0 -65 -175 0 -175 0 0 275 0 275
175 0 175 0 0 -65z"/>
<path d="M2930 776 c-27 -33 18 -72 48 -42 13 13 14 20 6 34 -15 23 -38 26
-54 8z m42 -2 c12 -11 -4 -42 -20 -40 -16 3 -23 22 -15 39 5 8 27 10 35 1z"/>
<path d="M980 505 l0 -145 65 0 65 0 0 145 0 145 -65 0 -65 0 0 -145z"/>
</g>
</svg>
